<svg width="237" height="159" viewBox="0 0 237 159" fill="none" xmlns="http://www.w3.org/2000/svg">
<path d="M143.148 132.941L39.1383 120.709L7.87915 60.2046L43.4017 3.11517L220.026 27.7103L227.935 106.897L186.48 138.056L163.41 135.336L159.56 151.592L143.148 132.941Z" fill="black"/>
<path d="M42.1753 116.626L145.511 128.787L157.062 141.902L159.781 130.464L185.073 133.447L223.055 104.894L215.739 31.5771L45.8543 7.91895L13.155 60.4258L42.1753 116.626Z" fill="white" stroke="black" stroke-width="7"/>
<path d="M61.5929 46.5362C60.9649 48.0907 59.8696 50.156 59.0336 51.4841L62.0623 52.6307L52.764 51.198L55.2383 50.8994C55.2679 49.4469 54.9874 47.1696 54.4295 45.4324L61.5929 46.5362ZM58.0596 65.3698L65.8872 66.5759L66.6182 61.8319L58.7906 60.6258L59.3534 56.9729L67.608 58.2448L68.3244 53.5956L63.5329 52.8573C64.4164 51.5365 65.4678 49.7558 66.636 47.8475L63.9649 46.9017L68.8513 47.6546L69.5603 43.0529L61.6852 41.8395L62.3504 37.5224L56.8948 36.6818L56.2296 40.9988L48.2597 39.7708L47.5506 44.3725L52.8639 45.1912L49.8677 45.4095C50.2834 47.1248 50.5383 49.2524 50.4869 50.8472L46.1224 50.1747L45.406 54.8238L53.8978 56.1322L53.335 59.7851L44.9855 58.4986L44.2545 63.2426L51.4654 64.3537C48.735 67.5755 44.9134 70.6291 41.5154 72.1939C42.5626 73.278 43.8904 75.3767 44.5543 76.7417C46.8501 75.3957 49.3504 73.3526 51.6099 70.981L50.1406 80.5165L55.5962 81.3571L57.1532 71.2524C58.3243 72.7927 59.4333 74.4205 60.0462 75.4863L63.9409 71.9582C62.9813 70.9362 59.5262 67.1984 58.0011 65.7493L58.0596 65.3698ZM89.7964 57.3412L74.9951 55.0606L76.0185 48.4189C81.1605 48.1428 86.7953 47.5054 91.2551 46.2985L87.3842 41.4768C84.2491 42.5964 79.3186 43.3909 74.6437 43.7876L71.5092 42.3818L68.9801 58.7961C67.9713 65.3429 66.1594 73.32 59.812 78.2671C60.9905 79.1286 62.7308 81.3879 63.2523 82.731C70.5158 77.1966 73.0544 67.3403 74.191 60.279L79.0299 61.0246L75.4555 84.2228L80.9111 85.0634L84.4855 61.8652L88.9923 62.5596L89.7964 57.3412ZM110.92 68.7066L106.603 68.0414L107.063 65.0527L111.38 65.7178L110.92 68.7066ZM103.074 52.4906L118.682 54.8955C118.732 59.6141 119.322 63.9789 120.361 67.6358C118.773 68.7996 117.113 69.8065 115.339 70.6016L116.538 62.8214L103.112 60.7528L101.533 70.9999L110.926 72.4472L107.284 74.6542C109.652 76.6218 112.363 79.5163 113.461 81.5311L117.862 78.8096C116.695 76.9299 114.225 74.3639 111.923 72.6007L114.959 73.0685L115.09 72.2146C115.988 73.3242 116.984 74.7404 117.429 75.6346C119.155 74.8321 120.816 73.8253 122.451 72.6688C124.096 75.5449 126.282 77.4358 128.986 77.8524C132.734 78.4299 134.635 77.1202 136.48 70.508C135.217 69.8763 133.615 68.6096 132.59 67.3832C131.724 71.4265 131.104 72.9336 130.053 72.8202C128.724 72.6155 127.564 71.3197 126.576 69.2247C129.328 66.492 131.759 63.3213 133.679 59.6833L128.651 57.6458C127.596 59.7658 126.278 61.6997 124.792 63.462C124.377 61.1153 124.053 58.4914 123.995 55.7142L136.899 57.7024L137.586 53.243L133.221 52.5705L134.908 51.082C133.62 49.6694 130.923 47.9426 128.796 46.9349L125.522 49.5872C126.682 50.2517 127.963 51.0804 129.094 51.9346L124.018 51.1525C124.095 49.7073 124.234 48.1746 124.413 46.6967L119.147 45.8853C118.968 47.3632 118.836 48.8485 118.752 50.3411L98.5901 47.2345L97.4936 54.3505C96.7554 59.1419 95.305 65.7178 90.6913 69.815C91.6947 70.5524 93.5919 72.7388 94.2448 73.8593C99.5776 69.193 101.751 61.0773 102.65 55.2421L103.074 52.4906ZM117.776 56.99L103.829 54.841L103.273 58.4464L117.221 60.5955L117.776 56.99ZM93.3552 86.2523C96.9685 84.2351 99.4254 80.5826 101.123 76.8132L96.3723 74.2357C94.8826 77.6 92.3237 80.654 89.1885 82.4049L93.3552 86.2523ZM109.727 84.0154C107.544 83.6792 107.187 83.4784 107.384 82.1975L108.32 76.1251L102.722 75.2626L101.779 81.3824C101.026 86.2687 102.215 88.0061 108.335 88.949L115.926 90.1186C120.527 90.8276 122.312 89.6457 123.828 83.9055C122.408 83.3469 120.113 82.1676 119.201 81.1528C118.386 84.8641 117.981 85.2873 116.179 85.0095L109.727 84.0154ZM122.351 79.9383C124.974 83.4022 127.414 88.0521 128.012 91.1067L133.53 89.3344C132.772 86.0607 130.113 81.5714 127.46 78.2973L122.351 79.9383ZM148.254 62.8032L178.142 67.4083L177.25 73.196L182.658 74.0293L184.266 63.5925L176.913 62.4595C178.537 61.0585 180.348 59.3948 182.063 57.7165L176.323 54.938C174.929 57.0543 172.626 59.7105 170.746 61.5092L163.44 60.3835L167.155 59.5961C166.794 57.8407 165.638 54.9428 164.595 52.888L159.405 53.7882C160.266 55.7663 161.189 58.2883 161.59 60.0985L153.43 58.8412L155.766 58.1812C155.222 56.3491 153.65 53.6299 152.348 51.6809L147.18 53.0701C148.154 54.6286 149.157 56.6287 149.777 58.2783L143.8 57.3573L142.192 67.7942L147.363 68.5909L148.254 62.8032ZM153.027 80.0513L168.208 82.3904L167.857 84.6675L152.677 82.3284L153.027 80.0513ZM153.846 74.738L169.027 77.0771L168.691 79.2593L153.51 76.9202L153.846 74.738ZM154.672 69.3772L169.853 71.7163L169.524 73.8511L154.343 71.512L154.672 69.3772ZM168.921 93.5248C167.071 93.2397 166.808 93.0535 166.998 91.8201L167.576 88.0723L172.841 88.8837L175.882 69.1486L149.98 65.1575L146.939 84.8926L151.351 85.5724C149.818 88.59 146.927 89.6988 136.921 89.0797C137.782 90.4265 138.759 92.9083 138.967 94.3973C151.218 94.6337 155.035 91.9195 157.186 86.4715L162.025 87.2171L161.44 91.0123C160.709 95.7563 161.702 97.5119 167.394 98.389L173.751 99.3685C177.974 100.019 179.663 98.8225 181.165 93.1772C179.745 92.6186 177.505 91.3992 176.538 90.4246C175.778 94.0956 175.42 94.5262 173.95 94.2996L168.921 93.5248ZM206.648 87.5018L211.689 88.2785L215.627 71.5835L217.009 64.2585L208.805 62.9945L207.918 70.3957L206.648 87.5018ZM207.143 101.035C209.614 101.416 211.766 99.9261 212.162 97.3564C212.565 94.7373 210.962 92.669 208.491 92.2883C206.02 91.9075 203.868 93.3972 203.464 96.0163C203.068 98.586 204.623 100.647 207.143 101.035Z" fill="black"/>
</svg>
