<svg width="705" height="51" viewBox="0 0 705 51" fill="none" xmlns="http://www.w3.org/2000/svg">
<g filter="url(#filter0_i_69_85)">
<path d="M210.55 11.336H242.142V6.32001H226.258V0.776011H220.802V6.32001H205.314V17.408C205.314 23.612 205.006 32.632 201.222 38.836C202.454 39.32 204.742 40.86 205.71 41.74C209.846 35.096 210.55 24.36 210.55 17.408V11.336ZM243.11 39.496C241.526 34.876 237.39 28.232 233.606 23.216L228.722 25.328C230.482 27.792 232.33 30.652 233.87 33.468C229.338 33.732 224.718 33.952 220.538 34.128C222.65 28.584 224.938 21.236 226.654 14.592L220.67 13.404C219.482 20.048 217.106 28.496 214.906 34.392C213.014 34.436 211.298 34.524 209.758 34.568L210.242 39.98C217.062 39.584 226.918 38.88 236.202 38.132C236.862 39.496 237.346 40.772 237.698 41.916L243.11 39.496ZM275.714 29.068V35.008H257.234V29.068H275.714ZM251.866 42.004H257.234V39.848H275.714V41.872H281.346V24.228H251.866V42.004ZM270.038 16.264V11.204H282.886V6.40801H270.038V0.68801H264.494V6.40801H257.498C258.158 5.00001 258.73 3.59201 259.214 2.14001L253.978 0.820011C252.438 5.57201 249.666 10.412 246.498 13.404C247.818 13.976 250.194 15.34 251.294 16.176C252.526 14.812 253.758 13.14 254.902 11.204H264.494V16.264H246.806V21.104H285.57V16.264H270.038ZM315.974 11.688V17.716H311.838V11.688H315.974ZM323.454 22.204C322.53 24.976 321.166 27.528 319.494 29.728C317.69 27.528 316.15 24.932 315.05 22.204H323.454ZM300.266 31.928H297.23V20.884H300.266V31.928ZM326.138 17.54L325.346 17.716H320.594V11.688H324.686C324.378 13.36 324.026 14.944 323.674 16.132L327.678 17.056C328.558 14.68 329.438 10.896 330.01 7.64001L326.754 6.98001L325.962 7.11201H320.594V0.732009H315.974V7.11201H307.35V18.948C307.35 24.096 307.086 30.784 304.754 36.284V16.308H297.582C298.594 13.448 299.386 10.412 300.046 7.42001H305.546V2.66801H290.234V7.42001H294.942C293.798 13.228 291.906 18.596 289.09 22.248C289.882 23.744 290.806 27.088 290.982 28.496C291.598 27.792 292.17 27.044 292.742 26.208V39.76H297.23V36.504H304.666C304.226 37.472 303.742 38.396 303.17 39.232C304.27 39.716 306.294 41.036 307.086 41.784C310.034 37.296 311.178 30.916 311.618 25.196C312.938 28.188 314.478 30.872 316.37 33.248C314.214 35.228 311.75 36.768 309.11 37.824C310.034 38.748 311.31 40.596 311.882 41.784C314.698 40.464 317.294 38.748 319.538 36.68C321.87 38.748 324.466 40.464 327.414 41.74C328.118 40.42 329.614 38.528 330.714 37.56C327.722 36.504 325.126 34.964 322.794 33.072C325.742 29.288 327.898 24.492 329.13 18.596L326.138 17.54ZM355.882 35.888V31.576C357.334 30.784 358.654 29.904 359.842 28.936C360.634 31.048 361.602 32.984 362.79 34.656L355.882 35.888ZM355.134 17.408H352.318V13.8H355.134V17.408ZM365.562 13.8H368.598V17.408H365.562V13.8ZM358.874 13.8H361.778V17.408H358.874V13.8ZM370.93 27.88C369.83 28.98 367.982 30.388 366.354 31.488C365.43 30.256 364.638 28.892 364.066 27.396H374.318V23.128H362.834V21.016H373.13V10.148H362.966V7.99201H374.23V3.85601H362.966V0.732009H357.906V3.85601H346.818V7.99201H357.906V10.148H347.918V21.016H357.862V23.128H346.378V25.504L345.85 23.656L342.902 25.02V15.736H346.51V10.764H342.902V1.21601H338.15V10.764H334.278V15.736H338.15V27.132C336.302 27.924 334.63 28.628 333.266 29.156L334.938 34.48C338.634 32.72 343.122 30.52 347.214 28.408L346.906 27.396H354.474C351.614 29.024 347.874 30.256 344.222 31.048C345.146 32.016 346.598 34.172 347.17 35.228C348.666 34.788 350.162 34.26 351.658 33.644V36.636C350.118 36.9 348.754 37.164 347.522 37.34L348.622 41.74C352.89 40.904 358.39 39.892 363.582 38.792L363.318 35.36C365.518 38.264 368.378 40.42 372.206 41.74C372.91 40.464 374.274 38.528 375.374 37.56C372.91 36.856 370.798 35.756 369.038 34.304C370.798 33.38 372.778 32.192 374.626 31.004L370.93 27.88ZM410.134 2.44801L406.614 3.85601C407.802 5.57201 409.166 8.16801 410.09 9.97201L413.61 8.47601C412.774 6.84801 411.234 4.03201 410.134 2.44801ZM415.326 0.424011L411.85 1.87601C413.038 3.54801 414.446 6.10001 415.37 7.94801L418.89 6.40801C418.098 4.86801 416.47 2.09601 415.326 0.424011ZM395.482 4.56001L388.706 3.24001C388.618 4.60401 388.31 6.27601 387.782 7.72801C387.254 9.40001 386.418 11.688 385.23 13.756C383.558 16.484 380.742 20.444 377.618 22.82L383.118 26.164C385.758 23.832 388.442 20.092 390.246 16.88H399.53C398.826 26.076 395.174 31.488 390.554 35.052C389.498 35.888 387.958 36.812 386.374 37.472L392.314 41.432C400.278 36.416 404.854 28.584 405.646 16.88H411.806C412.818 16.88 414.754 16.924 416.382 17.056V11.028C414.93 11.292 412.95 11.336 411.806 11.336H392.842C393.326 10.192 393.722 9.09201 394.074 8.16801C394.426 7.20001 394.998 5.66001 395.482 4.56001ZM424.214 17.628V24.536C425.842 24.404 428.79 24.316 431.298 24.316H454.926C456.774 24.316 459.018 24.492 460.074 24.536V17.628C458.93 17.716 456.994 17.892 454.926 17.892H431.298C429.01 17.892 425.798 17.76 424.214 17.628ZM487.254 4.82401L480.258 3.37201C480.082 4.86801 479.818 6.23201 479.202 8.47601C477.926 13.052 474.142 25.108 471.59 31.62C471.194 31.62 470.754 31.664 470.402 31.664C468.95 31.708 467.058 31.708 465.562 31.708L466.574 38.132C467.982 37.956 469.61 37.736 470.71 37.604C476.254 37.032 489.586 35.624 496.714 34.788C497.55 36.68 498.254 38.484 498.826 39.98L504.766 37.34C502.742 32.412 498.254 23.788 495.13 19.036L489.63 21.28C491.082 23.216 492.71 26.164 494.25 29.332C489.806 29.86 483.558 30.564 478.19 31.092C480.39 25.196 483.954 14.02 485.362 9.70801C486.022 7.77201 486.682 6.14401 487.254 4.82401Z" fill="black"/>
</g>
<path d="M20 21L0 11.453V34.547L20 25V21ZM200 21H18V25H200V21Z" fill="#313131"/>
<path d="M685 25L705 34.547V11.453L685 21V25ZM505 25H687V21H505V25Z" fill="#313131"/>
<defs>
<filter id="filter0_i_69_85" x="201.222" y="0.424011" width="303.544" height="45.58" filterUnits="userSpaceOnUse" color-interpolation-filters="sRGB">
<feFlood flood-opacity="0" result="BackgroundImageFix"/>
<feBlend mode="normal" in="SourceGraphic" in2="BackgroundImageFix" result="shape"/>
<feColorMatrix in="SourceAlpha" type="matrix" values="0 0 0 0 0 0 0 0 0 0 0 0 0 0 0 0 0 0 127 0" result="hardAlpha"/>
<feOffset dy="4"/>
<feGaussianBlur stdDeviation="2"/>
<feComposite in2="hardAlpha" operator="arithmetic" k2="-1" k3="1"/>
<feColorMatrix type="matrix" values="0 0 0 0 0 0 0 0 0 0 0 0 0 0 0 0 0 0 0.25 0"/>
<feBlend mode="normal" in2="shape" result="effect1_innerShadow_69_85"/>
</filter>
</defs>
</svg>
